<svg width="24" height="24" viewBox="0 0 24 24" fill="none" xmlns="http://www.w3.org/2000/svg">
<path fill-rule="evenodd" clip-rule="evenodd" d="M2 4.75C2 4.33579 2.33579 4 2.75 4H20.75C21.1642 4 21.5 4.33579 21.5 4.75C21.5 5.16421 21.1642 5.5 20.75 5.5H2.75C2.33579 5.5 2 5.16421 2 4.75ZM2 11.75C2 11.3358 2.33579 11 2.75 11H20.75C21.1642 11 21.5 11.3358 21.5 11.75C21.5 12.1642 21.1642 12.5 20.75 12.5H2.75C2.33579 12.5 2 12.1642 2 11.75ZM2 18.75C2 18.3358 2.33579 18 2.75 18H20.75C21.1642 18 21.5 18.3358 21.5 18.75C21.5 19.1642 21.1642 19.5 20.75 19.5H2.75C2.33579 19.5 2 19.1642 2 18.75Z" fill="#4F1F7E"/>
</svg>
